<?xml version="1.0" encoding="UTF-8"?>
<svg id="Layer_1" xmlns="http://www.w3.org/2000/svg" version="1.1" viewBox="0 0 890.13 915.34">
  <!-- Generator: Adobe Illustrator 29.5.1, SVG Export Plug-In . SVG Version: 2.1.0 Build 141)  -->
  <defs>
    <style>
      .st0 {
        stroke-miterlimit: 10;
      }

      .st0, .st1 {
        fill: #434354;
        stroke: #f4f4f4;
      }

      .st1 {
        stroke-linecap: round;
        stroke-linejoin: round;
        stroke-width: 2px;
      }
    </style>
  </defs>
  <path class="st0" d="M438.99,341.73c-68.87-2.57-127.52-50.71-151.75-113.75-28.5-74.17,12.62-170.13,84.39-203.11,132.72-60.98,274.89,56.05,235.28,198.28-19.48,69.93-88.72,116.4-159.92,118.58l1.01,160,107-53.48c2.51-2.82-.84-14.65-1.05-18.97-5.91-122.69,120.44-209.2,233.01-159.01,153.03,68.22,112.75,298.21-59.48,309.46-76.21,4.98-152.14-47.79-168.5-122.99l-107.99,52.01,81.62,109.91c22.62-15.64,48.43-26.65,76-29.8,156.73-17.92,243.79,179.88,121.85,279.85-93.13,76.35-226.55,30.54-259.74-83.21-16.73-57.37,9.2-123.56,54.33-160.32l-80.58-109.44-79.34,107.74c-.65,3.17,3.4,4.26,5.38,6.23,85.85,85.24,60.6,223.55-53.28,265.77-163.42,60.59-295.35-147.47-162.77-267.77,57.38-52.07,140.74-53.91,202.95-8.99l79.56-109.48-104.97-52.5c-22.14,99.31-145.5,151.62-234.7,105.18-50.25-26.16-92.19-87.65-88.3-145.68,6.9-103.02,89.61-176.98,194.2-158.22,87.82,15.75,150.23,102.19,131.27,190.76l104.53,51.94v-159ZM428.79,20.03c-80.99,6.79-136.35,75.52-140.84,154.16-3.01,52.72,38.08,112.13,82.74,137.34,96.09,54.25,225.27-10.99,232.29-122.31,6.35-100.66-74.08-177.59-174.19-169.19ZM160.78,266.02c-80.16,5.69-131.48,64.78-140.65,142.35-7.6,64.27,39.29,129.07,98.33,151.38,76.24,28.82,172.97-13.6,199.98-91.07,37.1-106.37-47.2-210.51-157.66-202.66ZM703.79,267.03c-105.55,8.64-174.65,127.66-121.97,222.37,71.28,128.15,271.27,94.91,289.04-52.3,11.92-98.76-69.25-178.08-167.07-170.07ZM248.79,597.03c-99.57,7.82-170.82,121.48-124.32,212.72,57.5,112.81,215.51,115.63,272.4,1.36,51.54-103.53-36.06-222.88-148.08-214.08ZM621.78,598.03c-123.85,3.71-191.9,150.11-107.82,246.23,82.41,94.21,236.15,52.99,260.71-69.34,18.84-93.86-58.35-179.72-152.9-176.89Z"/>
  <path class="st0" d="M252.99,729.73c11.41,17.84,20.77,36.91,10.18,57.68-11.41,22.39-40.71,28.03-44.17,55.83-.49,3.93,1.92,13.09-4.46,12.53-7.88-.69-2.8-21.82-.73-26.72,1.74-4.13,4.74-7.2,6.17-11.3l-45.05-30.57-6.46,2.53c-8.58-.18,1.65-23.32,3.64-27.36,12.7-25.73,36.15-41.22,64.88-42.63-5.75-16.44-5.28-32.14,2.83-47.66,7.2-13.78,24.25-28.36,37.26-36.74,3.33-2.15,12.09-9.34,14.41-4.58,3.19,6.55-3.46,7.72-7.49,10.49l42.06,34.93c3.01,3.78-1.07,9.84-5.39,7.47l-41.98-36.18c-3.88-1.95-5.76,3.11-9.06,4.2l-.63,2.06,51.97,43.64,1.99-.07c5.8-2.47,10.34-20.43,17.03-17.08,6.88,3.44-3.44,15.9-6.49,19.54-11.95,14.27-40.21,29.99-59.01,29.99h-21.5ZM247.49,720.73h26.5c.55-2.32-.43-1.64-1.26-2.29-3.14-2.44-20.41-13.35-21.24-14.71-1.31-2.15-.33-6.4,2.14-6.84,3.57-.64,26.31,18.02,31.33,20.41,1.76,1.6,12.06-1.86,12.01-3.06l-43.43-32.58c-3.21-3.66,2.02-9.02,6.03-6l46.07,35,9.33-7.42-52.34-44.43c-19.02,14.2-26.56,40.45-15.14,61.93ZM177,771.73l-1.72,6.55,50.21,34.41c10.17-10.7,25.96-18.18,31.27-32.69,4.88-13.32.94-23.43-5.25-35.29-1.84-3.53-8.51-15.29-12.05-15.96-6.62-1.25-20.86,3.15-27.46,5.48l39.06,29.94c2.97,3.83-3.36,8.27-7.05,6.05l-39.96-31.06c-1.85-.36-10.35,7.37-10.02,8.97,7.33,6.05,14.97,11.81,22.64,17.42,6.59,4.81,20.46,12.44,25.35,17.64,4.46,4.74.54,9.04-4.99,7.01l-48.72-35.36c-1.76-.15-7.53,8.3-5.43,10.43l50.18,34.89c2.53,2.36-1.19,6.4-3.63,6.62-4.5.41-44.13-32.47-52.44-35.05Z"/>
  <path class="st0" d="M684.64,699.38c3.81-3.54,5.75-10.77,9.37-15.12,15.26-18.34,45.2-3.38,34.02,19.02-6.67,13.36-31.6,12.53-27.81,30.73,3.45,16.6,28.3,11.27,38.26,18.73,12.45,9.33,9.57,29.94-3.97,37.02-21.11,11.04-42.1-14.9-57.65-25.4-.91-.61-4.13-3.46-4.87-2.62-3.29,15.25,6.93,21.42,13.51,32.98,8.08,14.19,15.75,40.62-3.83,49.21-5.06,2.22-19.17,1.32-19.74-4.73-.8-8.54,12.71-.95,17.96-4.04,15.02-8.85-.6-39.78-10.41-48.41-5.34,14.79-17.14,21-32.5,20.99,4.04,23.13-15.9,44.04-39.21,36.72-21.29-6.68-10.57-29.46,3.53-37.91,8.12-4.87,14.35-5.1,23.19-6.84,1.24-.24,1.82.72,1.51-1.47-1.13-8.05-21.37-29.15-29.63-29.5-3.95-.16-4.93,5.84-6.96,8.91-5.14,7.78-20.12,26.96-28.88,13.04-9.71-15.44,13.67-30.66,27.27-31.14,3.82-9.2-3.16-17.88-13.1-15.6-8.19,1.88-12.48,23.41-27.42,15.99-13.32-6.61-1.29-28.72-12.77-38.22-9.18-7.6-17.12.87-17.55,10.56-.16,3.65,3.06,12.74-5.25,10.27-4.18-1.24-2.87-11.37-2.26-14.88,4.32-24.91,35.91-20.92,38.54,4.57.48,4.63-1.57,20.91,5.42,20.5,5.72-.34,10.33-13.9,18.76-16.34,13.34-3.85,24.27,2.75,24.82,16.83.09,2.38-2.02,5.07-.57,7.57,18.61,3.61,32.71,20.57,38.71,37.79,12.5,1.59,23.17-2.73,26.92-15.36,1.34-4.5-2.62-6.95-6.05-10.02-23.44-20.96-70.38-31.22-63.77-70.75,1.36-8.12,9.2-11.83,9.66-13.39.26-.9-1.24-11.55-.94-14.89,2.23-24.27,34.9-34.5,51.55-15.47,9.29,10.61,7.2,21.08,10.99,33.01,3.09,9.73,12.69,15.52,21.15,7.65ZM608.99,685.72c20.5-5.81,42.12,16.08,51.16,32.33,5.76,10.35,8.26,20.75,10.77,32.23,16.34,8.58,37.66,37.25,57.33,33.21,5.8-1.19,8.67-6.73,8.81-12.27.4-15.43-17.21-13.21-27.61-17.47-14.44-5.91-23.9-23.84-11.99-37.05,8.36-9.28,26.94-9.9,24.46-25.42-.65-4.06-4.68-6.93-8.51-7.5-14.12-2.1-15.8,15.12-24.51,22.36-11,9.15-25.11,4.45-31.1-7.74-5.52-11.23-1.77-21.71-10.41-32.59-16-20.17-43.46-3.73-38.4,19.91ZM659.98,742.73c-1.94-12.23-7.89-24.19-15.96-33.53-7.51-8.68-19.72-19.51-32.03-15.46,7.02,22.41,30.73,34.99,47.99,48.99ZM604.97,697.73c-2.31-1.73-5.5,7.26-5.74,8.73-2.3,13.75,8.51,25.41,19.04,32.49l46.72,28.77-1.51-12.98c-21.3-16.14-48.27-31-58.51-57.01ZM584.99,768.74c-5.83.89-16.94,4.99-17.95,11.55-1.9,12.32,8.25,3.32,11.97-1.04,2.78-3.25,4.71-6.4,5.98-10.51ZM628.99,808.72c-9.56-.6-19.59,1.19-27.33,7.18-13.03,10.09-9.5,24.15,8.38,21.37,14.27-2.22,20.65-14.96,18.95-28.55Z"/>
  <path class="st0" d="M178.77,390c49.27-1.25,51.62,71.2,6.71,75.72-55.84,5.62-57.48-74.42-6.71-75.72ZM176.79,397.98c-38.46,2.98-34.65,62.09,4.64,60.78,39.93-1.34,36.36-63.96-4.64-60.78Z"/>
  <path class="st0" d="M114.82,319.97c51.52-2.46,50.65,77.67-1.32,73.74-45-3.4-43.85-71.59,1.32-73.74ZM115.76,328c-36.02.98-37.13,54.34-2.26,57.71,42.44,4.11,41.78-58.79,2.26-57.71Z"/>
  <path class="st0" d="M255.73,361.97c29.71-4.63,51.56,23.43,37.28,50.28-16.94,31.87-67.69,17.95-65-19.01,1.02-14.05,13.55-29.06,27.72-31.27ZM258.74,368.99c-33.9,4.43-28.16,57.57,7.64,53.62,33.74-3.72,28.91-58.4-7.64-53.62Z"/>
  <path class="st0" d="M195.73,301.97c44.28-6.93,55.36,54.71,16.3,65.3-46.01,12.48-58.21-58.75-16.3-65.3ZM200.79,308.95c-29.21,1.54-32.43,46.16-2.86,51.33,38.92,6.81,39.62-53.27,2.86-51.33Z"/>
  <path class="st0" d="M80.76,403.01c42.05-4.47,47.27,57.49,8.64,62.63-44.52,5.93-51.03-58.12-8.64-62.63ZM77.72,410.97c-7.52,1.26-15.34,9.41-17.45,16.55-6.3,21.27,17.21,39.03,35.86,27.86,24.19-14.49,10.68-49.29-18.41-44.41Z"/>
  <path class="st0" d="M122.73,469.97c40.35-6.34,45.4,52.15,7.64,55.66-35.73,3.33-41.31-50.37-7.64-55.66ZM123.72,476.97c-23.5,4.06-21.39,42.16,4.66,41.65,29.87-.58,25.67-46.88-4.66-41.65Z"/>
  <path class="st0" d="M232.75,457.99c39.32-5.73,42.57,49.79,10.48,54.48-38.52,5.62-44.75-49.48-10.48-54.48ZM232.71,464.95c-3.81.78-9.96,5.61-12.16,8.84-11.66,17.06,6.92,38.04,25.82,29.82,21.54-9.36,10.96-43.73-13.66-38.66Z"/>
  <path class="st0" d="M715.02,315.72c53.6-5.46,110.41,18.46,115.19,78.22,8.16,102.03-113.76,165.32-192.88,99.88-75.99-62.85-3.95-169.78,77.69-178.11ZM720.03,324.72c-93.93,8.27-156.77,134.03-47.48,178.88,79.6,32.67,172.51-46.76,143.44-129.44-14.13-40.19-56.74-52.89-95.96-49.44Z"/>
  <path class="st0" d="M476.61,248.96c1.77,10.17,7.2,31.82-2.66,38.84-12.51,8.91-17.63-13.73-20.87-20.83-2.13-4.67-4.35-9.59-7.06-13.94-5.27-8.44-12.83-13.76-17.41-22.61-5.29-.46-9.84.94-15.4.41-15.98-1.55-34.86-14.76-36.75-31.75-23.41-.74-50.98-5.53-53.75-33.75-.72-7.34-.2-24.13,1.58-31.17,7.3-28.96,36.88-52.33,64.92-59.08,9.52-2.29,18.13-5.52,27.37-7.63,26.89-6.14,51.38,1.61,76.79,10.23,20.39,6.91,45.51,37.33,54.39,56.61,11.64,25.27,17.23,62.21-9.46,79.88-1.79,1.19-5.07,1.47-6.19,2.81s-2.19,7.25-3.33,9.67c-9.42,20.02-31.23,28.05-52.18,22.31ZM402.6,132.46v19c0,1.12,3.09,7.72,5.33,7.36,6.36-4.17,13.97-7.13,21.47-8.56,16.38-3.12,46.65,4.09,54.1-15.9,1.95-5.24-.9-15.57,1.03-16.97,6.96-5.03,7.46,11.39,6.98,14.99-4.35,33.23-48.08,20.27-69.19,27.81-19.54,6.98-52.76,33.88-28.74,54.28,20.75,17.63,41.26,3.33,62.37-1.65,10.71-2.52,26.11-3.85,37.09-3.91,20.32-.12,39.59,8.34,50.92-14.08,6.82-13.5,6.1-29.49-.39-42.87-2.55-.4-1.55.21-2.08,1.4-1.35,3.01-6.12,19.37-11.81,15.5-3.75-2.56,2.76-10.13,4.08-13.22,10.23-23.98-11.29-54.85-36.69-56.66-3.64-.26-14.61,2.05-16.06.05-1.87-4.75,3.06-7.39,7.16-7.98,1.18-.17,12.21.79,9.41-2.08-16.47-7.61-24.29-9.94-37,4.48-1.56,1.77-2.37,5.33-4.43,6.57-6.49,3.9-7.15-1.29-4.41-6.41,3.2-5.98,8.81-9.13,13.56-13.37.47-.42,2.77-.66,1.28-2.27-.36-.39-9.21-2-10.5-2.01-13.33-.09-25.49,9.27-27.23,22.75-1.05,8.09,1.92,14.34-.93,23.07-1.51,4.62-6.64,9.84-11,12.02-7.89-2.72,3.28-9.92,4.45-15.58s-.38-13.63.24-19.76c1.15-11.34,8.84-18.57,16.99-25.5-12.01.25-23.82,2.68-35,7,2.01,2.47,9.57,15.39,4.37,16.92-4.66,1.38-9.12-10.48-13.39-12.42-13.46-6.1-39.83,16.2-47.96,26-3.18,3.84-19.29,27.84-16.02,31.47,1.87.42,2.37-1.03,3.5-1.99,7.78-6.59,9.93-18.05,16.52-25.48,4.73-5.34,26.92-19.01,32.73-13.27,6.63,6.54-7.48,7.24-9.98,8.02-20.66,6.44-20.2,19.2-31.8,33.2-7.23,8.74-12.28,7.28-10.96,21.02,2.5,25.96,27.13,26.32,47.84,27.35l4.03-8.36c-.37-4.76-38.44-3.34-40.82-18.03-.5-3.06-.28-8.09.87-11.02,2-5.11,11.74-9.64,11.09-2.99-.23,2.4-3.86,5.14-4.59,7.53-2.04,6.68,8.25,10.5,13.35,11.75,3.34.82,24.81,4.6,26.5,4.09l11.48-10.31c-1.02-2.65-3.47-4.73-4.3-7.47-1.26-4.2-1.35-16.92.29-20.78.68-1.61,2.54-3,3.76-4.25l2.48,1.49ZM520.6,216.97c-14.76.21-29.79-.59-44.49,1-3.53.38-8.74,1.03-12.06,1.94-1.37.38-3.11.13-3.45,2.04,17.8-.02,35.5,3.28,52.99-1.5,2.21-.61,5.92-1.22,7.01-3.48ZM452.42,223.13l-16.8,5.32c2,5.5,7.15,8.3,10.49,12.5,4.85,6.09,8.5,12.21,11.67,19.33,2.2,4.96,5.53,22.16,12.21,20.75,7.51-22.9-5.9-39.92-17.57-57.9ZM518.6,225.96c-17.57,5.16-36.02,1.78-53.99,3.49,11.81,4.92,40.65,6.51,51.33-.66,1.02-.68,2.38-1.57,2.66-2.83ZM505.59,237.96c-10.76,3.29-21.98,1.16-32.99,2.49,8.15,4.17,22.31,2.54,30.81-.22,1.68-.54,2.64.44,2.17-2.27Z"/>
  <path class="st0" d="M700.21,450.44c2.09,3.18-3.05,6.04-5.72,6.74-15.51,4.01-33.6-4-35.24-21.27-.34-3.52-.97-13.52,4.51-10.52.77,12.38,5.57,23.17,19.06,24.94,2.93.39,16.89-.65,17.39.11Z"/>
  <path class="st0" d="M770.87,448.54c8.93-2.89,1.64,12.57-1.2,15.83-5.6,6.41-27.76,15.4-33.32,7.4-3.99-5.74,9.77-4.12,13.12-4.6,6.19-.88,12.56-4.82,16.18-9.82,1.52-2.1,3.78-8.33,5.23-8.8Z"/>
  <path class="st0" d="M749.14,417.34c-6.49,1.27-9.51-4.98-14.87-7.47-5.26-2.44-10.53-3.03-16.29-2.19-4.19.61-15.52,8.19-14.79,1.27.34-3.22,8.09-6.3,10.99-7.08,9.86-2.66,22.12-.58,30.05,6.03,2.65,2.21,6.94,5.81,4.9,9.43Z"/>
  <path class="st0" d="M788.72,384.7c15.43,5.78,17.72,33.77,3,41.67-5.5-4.7.96-8.48,2.07-13.89,2.1-10.25-1.03-17.13-7.42-24.74l2.35-3.03Z"/>
  <path class="st0" d="M669.97,378.67c4.5-.73,12.36-1.63,9.84,4.84-9.18,2.2-17.68,3.06-23.41,11.59-2.05,3.05-4.02,13.48-7.66,12.32-2.39-.76-1.4-5.24-1.05-7.04,1.84-9.37,12.81-20.18,22.28-21.71Z"/>
  <path class="st0" d="M748.32,382.33c-3.31-11.27,11.21-6.52,16.85-3.35,6.22,3.49,14.97,13.96,11.55,21.42-3.36,7.32-6.45-5.62-7.45-7.52-3.96-7.53-12.64-11.62-20.94-10.56Z"/>
  <path class="st0" d="M721.22,480.43c-1.1,16.21-27.41,13.1-34.75,2.51,3.9-8.43,6.88-1.95,11.76-.03,9.32,3.66,14.4.13,22.98-2.48Z"/>
  <path class="st0" d="M726.97,353.17c-2.59,2.49-12.17-.35-17.96,1.54-6.7,2.18-10.73,10.02-12.43,10.6-3.72,1.26-5.06-1.42-3.82-4.84,3.94-10.91,26-17.62,35.4-10.45.17.63-.67,2.65-1.19,3.16Z"/>
  <path class="st0" d="M488.6,181.97c4,9.47,17.69,10.16,26.29,6.78,4.09-1.61,7.05-6.39,11.69-4.28,7.24,3.29-9.57,11.06-12.97,12.01-9.48,2.64-20.23,1.43-27.96-5.08-2.03-1.71-2.97-5.27-5.51-5.4-17.6,10.36-54.56-6.95-67.55,9.46-2.61,3.3-4.38,12.09-10.05,7.84-1.04-14.95,13.72-21.37,26.52-22.38,19.52-1.54,31.76,4.84,52.22-3.78,19.95-8.41,36.59-24.18,34.24-47.6-.25-2.44-4.12-8.5.72-9.43,4.01-.77,6.03,6.36,6.36,9.34,2.56,22.88-12.6,45.15-34,52.52Z"/>
  <path class="st0" d="M393.36,111.16c3.96-.55,8.42,2.04,5.8,5.85-.42.61-9.6,3.46-12.47,5.53-6.77,4.86-14.01,17.18-22.67,18.38-3.8.53-5.76-.44-6.27-4.33.44-2.34,5.55-3.16,7.57-4.42,8.62-5.39,18.29-19.66,28.05-21.01Z"/>
  <path class="st0" d="M461.45,109.1c2.78,4.53-1.06,14.49-4.87,17.33-3.76,2.8-16.49,4.22-17.04-.98-.61-5.76,7.49-2.14,11.45-4.61,5.52-3.44,2.59-14.39,10.46-11.74Z"/>
  <path class="st1" d="M503.6,236.71c1-.08,2-.17,3-.25"/>
  <path class="st1" d="M663.23,425.92v8"/>
  <path class="st1" d="M697.23,454.17c.5-.08,1-.17,1.5-.25"/>
</svg>